<svg width="139" height="139" viewBox="0 0 139 139" fill="none" xmlns="http://www.w3.org/2000/svg">
<path d="M55.6666 10.7085C55.6666 4.96766 60.3008 0.333496 66.0416 0.333496C71.7824 0.333496 76.4166 4.96766 76.4166 10.7085C76.4166 16.4493 71.7824 21.0835 66.0416 21.0835C60.3008 21.0835 55.6666 16.4493 55.6666 10.7085ZM138.667 41.8335V66.0418L131.542 68.4627C130.96 72.5819 128.912 76.3531 125.774 79.0846C122.636 81.816 118.619 83.3245 114.458 83.3335H113.905C112.937 88.0368 110.654 92.256 107.542 95.6452V138.667H90.2499V104.084H88.5208C87.0683 104.084 85.6158 103.876 84.2325 103.669L53.5224 98.5502L45.7758 112.453L50.9633 138.667H33.3949L27.9999 112.729C27.7924 110.654 27.9999 108.579 29.1066 106.781L36.1616 94.2618C32.7283 92.3517 29.8514 89.5806 27.814 86.2213C25.7766 82.862 24.6488 79.0301 24.5416 75.1027C24.2649 76.1402 24.1266 77.6618 24.3341 79.8752C24.5416 82.9185 25.3024 87.4143 24.8183 92.3943C24.5416 97.3743 22.2591 102.493 19.3541 105.882C16.3799 109.271 13.1291 111.623 9.67078 113.421L4.82911 108.579C6.14328 105.328 7.45745 102.424 7.73411 99.726C8.14911 97.1668 7.66495 95.0918 6.90411 93.2243L3.23828 85.4085C1.78578 81.881 -0.0125522 76.7627 0.333281 70.7452C0.540781 64.866 3.79161 57.1885 9.94745 52.9693C16.1724 48.7502 22.8816 48.1277 28.3458 49.3035C31.8041 49.9952 35.3316 51.6552 38.3749 54.0068C40.9341 52.831 43.9083 52.2085 47.0208 52.2085H48.7499V42.5943C48.7499 35.6777 53.4533 29.3143 60.2316 28.2077C62.2174 27.8651 64.2541 27.9605 66.1992 28.4873C68.1443 29.014 69.9509 29.9594 71.4924 31.2572C73.034 32.555 74.2734 34.174 75.124 36.0009C75.9746 37.8277 76.4157 39.8183 76.4166 41.8335V52.2085H86.7916V48.7502C86.7916 33.4643 99.1724 21.0835 114.458 21.0835H138.667L132.511 30.3518C136.246 32.8418 138.667 37.061 138.667 41.8335ZM124.833 63.9668L117.64 52.4852C116.741 51.0327 114.458 51.6552 114.458 53.3843V76.4168C120.199 76.4168 124.833 71.7827 124.833 66.0418V63.9668Z" fill="#E25319"/>
</svg>
