<svg width="16" height="18" viewBox="0 0 16 18" fill="none" xmlns="http://www.w3.org/2000/svg">
<path fill-rule="evenodd" clip-rule="evenodd" d="M4.22476 3.55814C3.98069 3.80222 3.98069 4.19795 4.22477 4.44203C4.46885 4.6861 4.86457 4.6861 5.10865 4.44202L7.37501 2.17564V12.3334C7.37501 12.6786 7.65483 12.9584 8.00001 12.9584C8.34519 12.9584 8.62501 12.6786 8.62501 12.3334L8.62501 2.17562L10.8914 4.44203C11.1355 4.6861 11.5312 4.6861 11.7753 4.44202C12.0194 4.19794 12.0194 3.80222 11.7753 3.55814L8.44195 0.224804C8.32474 0.107594 8.16577 0.041748 8.00001 0.041748C7.83425 0.041748 7.67528 0.107598 7.55807 0.224808L4.22476 3.55814ZM3.28322 6.89103C3.49911 6.6217 3.4558 6.22835 3.18648 6.01245C2.91715 5.79655 2.5238 5.83986 2.30791 6.10919C1.3073 7.3574 0.708374 8.943 0.708374 10.6668C0.708374 14.6938 3.97296 17.9584 8.00004 17.9584C12.0271 17.9584 15.2917 14.6938 15.2917 10.6668C15.2917 8.943 14.6928 7.3574 13.6922 6.10919C13.4763 5.83986 13.0829 5.79655 12.8136 6.01245C12.5443 6.22835 12.501 6.6217 12.7169 6.89103C13.5461 7.92547 14.0417 9.23739 14.0417 10.6668C14.0417 14.0035 11.3368 16.7084 8.00004 16.7084C4.66332 16.7084 1.95837 14.0035 1.95837 10.6668C1.95837 9.23739 2.45397 7.92547 3.28322 6.89103Z" fill="white"/>
</svg>
